<svg width="180" height="180" viewBox="0 0 180 180" fill="none" xmlns="http://www.w3.org/2000/svg">
<path d="M180 174.6C180 177.582 139.706 180 90 180C40.2944 180 0 177.582 0 174.6C0 171.618 40.2944 169.2 90 169.2C139.706 169.2 180 171.618 180 174.6Z" fill="#2B2A7F"/>
<path fill-rule="evenodd" clip-rule="evenodd" d="M139.779 29.8699C139.819 27.2511 141.974 25.1606 144.593 25.2007C147.212 25.2407 149.302 27.3961 149.262 30.0148L149.113 39.7694C149.073 42.3882 146.918 44.4787 144.299 44.4387C141.68 44.3986 139.59 42.2433 139.63 39.6245L139.779 29.8699ZM144.538 28.8002C143.907 28.7906 143.388 29.2941 143.378 29.9249L143.229 39.6795C143.22 40.3103 143.723 40.8294 144.354 40.8391C144.985 40.8487 145.504 40.3452 145.514 39.7144L145.663 29.9598C145.672 29.3291 145.169 28.8099 144.538 28.8002ZM149.798 49.5733C149.838 46.9545 151.994 44.864 154.613 44.904L164.367 45.0531C166.986 45.0931 169.076 47.2485 169.036 49.8673C168.996 52.4861 166.841 54.5766 164.222 54.5366L154.468 54.3875C151.849 54.3475 149.758 52.1921 149.798 49.5733ZM154.558 48.5036C153.927 48.494 153.408 48.9975 153.398 49.6283C153.388 50.2591 153.892 50.7782 154.523 50.7879L164.277 50.937C164.908 50.9466 165.427 50.4431 165.437 49.8123C165.446 49.1815 164.943 48.6624 164.312 48.6527L154.558 48.5036ZM39.9528 57.1743C41.3818 51.6012 46.4045 47.7038 52.158 47.7038H133.243C138.996 47.7038 144.019 51.6012 145.448 57.1743L154.195 91.2881C154.618 92.9359 154.702 94.6522 154.443 96.3335L149.362 129.363C148.416 135.51 143.127 140.048 136.908 140.048H61.13C57.3685 149.233 48.3398 155.704 37.7998 155.704C23.8822 155.704 12.5998 144.422 12.5998 130.504C12.5998 118.462 21.0457 108.393 32.3367 105.898L30.9324 96.2797C30.6913 94.6286 30.7806 92.9461 31.195 91.3298L39.9528 57.1743ZM35.8985 105.375C36.5261 105.328 37.1602 105.304 37.7998 105.304C51.7174 105.304 62.9998 116.586 62.9998 130.504C62.9998 132.551 62.7556 134.542 62.2949 136.448H136.908C141.351 136.448 145.128 133.207 145.804 128.816L150.885 95.7861L150.896 95.7164L150.902 95.6747H124.06L116.452 106.327C114.086 109.638 110.268 111.603 106.199 111.603H80.3379C76.2687 111.603 72.45 109.638 70.0848 106.327L62.4763 95.6747H34.4826L34.4946 95.7596L35.8985 105.375ZM141.961 58.0685L150.68 92.0747H138.871V68.0805C138.871 63.1099 134.841 59.0804 129.871 59.0804H55.5273C50.5568 59.0804 46.5273 63.1099 46.5273 68.0805V92.0747H34.7205L43.44 58.0685C44.4607 54.0877 48.0484 51.3039 52.158 51.3039H133.243C137.353 51.3039 140.94 54.0877 141.961 58.0685ZM135.271 72.2581C133.767 71.1283 131.897 70.4588 129.871 70.4588H55.5273C53.5012 70.4588 51.6315 71.1283 50.1273 72.2581V68.0805C50.1273 65.0981 52.545 62.6805 55.5273 62.6805H129.871C132.853 62.6805 135.271 65.0981 135.271 68.0805V72.2581ZM50.1273 92.0747H63.4027C63.984 92.0747 64.5295 92.3554 64.8674 92.8285L73.0143 104.234C74.7037 106.599 77.4313 108.003 80.3379 108.003H106.199C109.105 108.003 111.833 106.599 113.522 104.234L121.669 92.8285C122.007 92.3554 122.552 92.0747 123.134 92.0747H135.271V91.1086L134.909 89.2142C134.863 88.9739 134.807 88.7374 134.743 88.5049C133.873 86.6893 132.018 85.4354 129.871 85.4354H55.5273C53.0428 85.4354 50.9502 87.1133 50.3208 89.3978C50.2908 89.5753 50.2659 89.7546 50.2463 89.9357L50.1273 91.0352V92.0747ZM16.1998 130.504C16.1998 118.575 25.8705 108.904 37.7998 108.904C49.7291 108.904 59.3998 118.575 59.3998 130.504C59.3998 142.433 49.7291 152.104 37.7998 152.104C25.8705 152.104 16.1998 142.433 16.1998 130.504ZM33.2998 118.804C33.2998 116.319 35.3145 114.304 37.7998 114.304C40.2851 114.304 42.2998 116.319 42.2998 118.804V129.604C42.2998 132.089 40.2851 134.104 37.7998 134.104C35.3145 134.104 33.2998 132.089 33.2998 129.604V118.804ZM37.7998 117.904C37.3027 117.904 36.8998 118.307 36.8998 118.804V129.604C36.8998 130.101 37.3027 130.504 37.7998 130.504C38.2969 130.504 38.6998 130.101 38.6998 129.604V118.804C38.6998 118.307 38.2969 117.904 37.7998 117.904ZM37.7998 146.704C35.3145 146.704 33.2998 144.689 33.2998 142.204C33.2998 139.719 35.3145 137.704 37.7998 137.704C40.2851 137.704 42.2998 139.719 42.2998 142.204C42.2998 144.689 40.2851 146.704 37.7998 146.704ZM36.8998 142.204C36.8998 142.701 37.3027 143.104 37.7998 143.104C38.2969 143.104 38.6998 142.701 38.6998 142.204C38.6998 141.707 38.2969 141.304 37.7998 141.304C37.3027 141.304 36.8998 141.707 36.8998 142.204Z" fill="#2B2A7F"/>
</svg>
